<svg width="100%" height="100%" viewBox="0 0 48 48" fill="none" xmlns="http://www.w3.org/2000/svg" id="logo">
<path d="M13.4668 16.7998H38.2668C41.2123 16.7998 43.6001 19.1876 43.6001 22.1331V42.6665C43.6001 45.612 41.2123 47.9998 38.2668 47.9998H13.4668V16.7998Z" fill="#202020"/>
<path fill-rule="evenodd" clip-rule="evenodd" d="M23.3329 4.26667C18.1046 4.26667 13.8663 8.50504 13.8663 13.7333H9.59961C9.59961 6.14862 15.7482 0 23.3329 0C30.9177 0 37.0663 6.14862 37.0663 13.7333H32.7996C32.7996 8.50504 28.5612 4.26667 23.3329 4.26667Z" fill="#202020"/>
<path d="M20.8929 31.4138C20.4974 31.4138 20.1507 31.3071 19.8529 31.0938C19.5551 30.8804 19.3218 30.5804 19.1529 30.1938C18.9885 29.8071 18.9062 29.3582 18.9062 28.8471C18.9062 28.3316 18.9885 27.8827 19.1529 27.5004C19.3174 27.1182 19.5485 26.8204 19.8463 26.6071C20.144 26.3938 20.4907 26.2871 20.8863 26.2871C21.2907 26.2871 21.6396 26.3938 21.9329 26.6071C22.2307 26.8204 22.464 27.1204 22.6329 27.5071C22.8018 27.8893 22.8863 28.336 22.8863 28.8471C22.8863 29.3582 22.8018 29.8071 22.6329 30.1938C22.4685 30.576 22.2374 30.876 21.9396 31.0938C21.6418 31.3071 21.2929 31.4138 20.8929 31.4138ZM20.8996 30.5871C21.1263 30.5871 21.3196 30.5182 21.4796 30.3804C21.6396 30.2382 21.7618 30.0382 21.8463 29.7804C21.9351 29.5182 21.9796 29.2071 21.9796 28.8471C21.9796 28.4871 21.9351 28.1782 21.8463 27.9204C21.7618 27.6582 21.6374 27.4582 21.4729 27.3204C21.3129 27.1827 21.1174 27.1138 20.8863 27.1138C20.664 27.1138 20.4729 27.1827 20.3129 27.3204C20.1529 27.4582 20.0285 27.6582 19.9396 27.9204C19.8551 28.1782 19.8129 28.4871 19.8129 28.8471C19.8129 29.2027 19.8551 29.5116 19.9396 29.7738C20.0285 30.0316 20.1529 30.2316 20.3129 30.3738C20.4774 30.516 20.6729 30.5871 20.8996 30.5871Z" fill="currentcolor"/>
<path d="M24.5796 31.3338L24.0463 30.8004L25.0596 29.7871L24.053 28.7871L24.5863 28.2604L25.5863 29.2604L26.593 28.2604L27.1263 28.7871L26.113 29.7871L27.1263 30.8004L26.5996 31.3338L25.5863 30.3204L24.5796 31.3338Z" fill="currentColor"/>
<path d="M30.2807 31.4138C29.8851 31.4138 29.5385 31.3071 29.2407 31.0938C28.9429 30.8804 28.7096 30.5804 28.5407 30.1938C28.3762 29.8071 28.294 29.3582 28.294 28.8471C28.294 28.3316 28.3762 27.8827 28.5407 27.5004C28.7051 27.1182 28.9362 26.8204 29.234 26.6071C29.5318 26.3938 29.8785 26.2871 30.274 26.2871C30.6785 26.2871 31.0273 26.3938 31.3207 26.6071C31.6185 26.8204 31.8518 27.1204 32.0207 27.5071C32.1896 27.8893 32.274 28.336 32.274 28.8471C32.274 29.3582 32.1896 29.8071 32.0207 30.1938C31.8562 30.576 31.6251 30.876 31.3273 31.0938C31.0296 31.3071 30.6807 31.4138 30.2807 31.4138ZM30.2873 30.5871C30.514 30.5871 30.7073 30.5182 30.8673 30.3804C31.0273 30.2382 31.1496 30.0382 31.234 29.7804C31.3229 29.5182 31.3673 29.2071 31.3673 28.8471C31.3673 28.4871 31.3229 28.1782 31.234 27.9204C31.1496 27.6582 31.0251 27.4582 30.8607 27.3204C30.7007 27.1827 30.5051 27.1138 30.274 27.1138C30.0518 27.1138 29.8607 27.1827 29.7007 27.3204C29.5407 27.4582 29.4162 27.6582 29.3273 27.9204C29.2429 28.1782 29.2007 28.4871 29.2007 28.8471C29.2007 29.2027 29.2429 29.5116 29.3273 29.7738C29.4162 30.0316 29.5407 30.2316 29.7007 30.3738C29.8651 30.516 30.0607 30.5871 30.2873 30.5871Z" fill="currentcolor"/>
<path d="M34.8807 31.4138C34.5207 31.4138 34.2074 31.3471 33.9407 31.2138C33.6785 31.076 33.4741 30.8916 33.3274 30.6604C33.1852 30.4293 33.1141 30.176 33.1141 29.9004C33.1141 29.576 33.2007 29.3027 33.3741 29.0804C33.5474 28.8538 33.7985 28.6871 34.1274 28.5804L34.0741 28.8004C33.8385 28.7249 33.6518 28.5782 33.5141 28.3604C33.3807 28.1427 33.3141 27.9027 33.3141 27.6404C33.3141 27.3782 33.3807 27.1449 33.5141 26.9404C33.6474 26.736 33.8318 26.576 34.0674 26.4604C34.303 26.3449 34.5741 26.2871 34.8807 26.2871C35.183 26.2871 35.4496 26.3449 35.6807 26.4604C35.9163 26.576 36.1007 26.736 36.2341 26.9404C36.3718 27.1449 36.4407 27.3782 36.4407 27.6404C36.4407 27.9071 36.3718 28.1493 36.2341 28.3671C36.1007 28.5804 35.9163 28.7271 35.6807 28.8071L35.6341 28.5738C35.963 28.6893 36.2141 28.8604 36.3874 29.0871C36.5607 29.3093 36.6474 29.5827 36.6474 29.9071C36.6474 30.1827 36.5741 30.436 36.4274 30.6671C36.2852 30.8938 36.0807 31.076 35.8141 31.2138C35.5518 31.3471 35.2407 31.4138 34.8807 31.4138ZM34.8807 30.6471C35.0541 30.6471 35.2052 30.616 35.3341 30.5538C35.463 30.4871 35.563 30.396 35.6341 30.2804C35.7052 30.1604 35.7407 30.0249 35.7407 29.8738C35.7407 29.7182 35.7052 29.5849 35.6341 29.4738C35.563 29.3582 35.463 29.2693 35.3341 29.2071C35.2052 29.1404 35.0541 29.1071 34.8807 29.1071C34.7074 29.1071 34.5563 29.1404 34.4274 29.2071C34.303 29.2693 34.2052 29.3582 34.1341 29.4738C34.063 29.5849 34.0274 29.7182 34.0274 29.8738C34.0274 30.0249 34.063 30.1604 34.1341 30.2804C34.2052 30.396 34.303 30.4871 34.4274 30.5538C34.5563 30.616 34.7074 30.6471 34.8807 30.6471ZM34.8807 28.3404C35.0096 28.3404 35.123 28.3116 35.2207 28.2538C35.3185 28.196 35.3941 28.1204 35.4474 28.0271C35.5052 27.9293 35.5341 27.8182 35.5341 27.6938C35.5341 27.5693 35.5052 27.4604 35.4474 27.3671C35.3941 27.2693 35.3185 27.1938 35.2207 27.1404C35.123 27.0827 35.0096 27.0538 34.8807 27.0538C34.7518 27.0538 34.6363 27.0827 34.5341 27.1404C34.4363 27.1938 34.3585 27.2693 34.3007 27.3671C34.2474 27.4604 34.2207 27.5693 34.2207 27.6938C34.2207 27.8182 34.2474 27.9293 34.3007 28.0271C34.3585 28.1204 34.4363 28.196 34.5341 28.2538C34.6363 28.3116 34.7518 28.3404 34.8807 28.3404Z" fill="currentcolor"/>
<path d="M20.8929 38.8804C20.4974 38.8804 20.1507 38.7738 19.8529 38.5604C19.5551 38.3471 19.3218 38.0471 19.1529 37.6604C18.9885 37.2738 18.9062 36.8249 18.9062 36.3138C18.9062 35.7982 18.9885 35.3493 19.1529 34.9671C19.3174 34.5849 19.5485 34.2871 19.8463 34.0738C20.144 33.8604 20.4907 33.7538 20.8863 33.7538C21.2907 33.7538 21.6396 33.8604 21.9329 34.0738C22.2307 34.2871 22.464 34.5871 22.6329 34.9738C22.8018 35.356 22.8863 35.8027 22.8863 36.3138C22.8863 36.8249 22.8018 37.2738 22.6329 37.6604C22.4685 38.0427 22.2374 38.3427 21.9396 38.5604C21.6418 38.7738 21.2929 38.8804 20.8929 38.8804ZM20.8996 38.0538C21.1263 38.0538 21.3196 37.9849 21.4796 37.8471C21.6396 37.7049 21.7618 37.5049 21.8463 37.2471C21.9351 36.9849 21.9796 36.6738 21.9796 36.3138C21.9796 35.9538 21.9351 35.6449 21.8463 35.3871C21.7618 35.1249 21.6374 34.9249 21.4729 34.7871C21.3129 34.6493 21.1174 34.5804 20.8863 34.5804C20.664 34.5804 20.4729 34.6493 20.3129 34.7871C20.1529 34.9249 20.0285 35.1249 19.9396 35.3871C19.8551 35.6449 19.8129 35.9538 19.8129 36.3138C19.8129 36.6693 19.8551 36.9782 19.9396 37.2404C20.0285 37.4982 20.1529 37.6982 20.3129 37.8404C20.4774 37.9827 20.6729 38.0538 20.8996 38.0538Z" fill="currentcolor"/>
<path d="M25.3663 38.8804C25.1041 38.8804 24.853 38.8316 24.613 38.7338C24.3774 38.636 24.173 38.4982 23.9996 38.3204C23.8307 38.1382 23.7152 37.9227 23.653 37.6738L24.4396 37.3938C24.5152 37.6204 24.6374 37.7893 24.8063 37.9004C24.9752 38.0071 25.1619 38.0604 25.3663 38.0604C25.5352 38.0604 25.6841 38.0249 25.813 37.9538C25.9463 37.8782 26.0485 37.776 26.1196 37.6471C26.1907 37.5138 26.2263 37.3604 26.2263 37.1871C26.2263 37.0138 26.1885 36.8627 26.113 36.7338C26.0419 36.6049 25.9419 36.5049 25.813 36.4338C25.6841 36.3582 25.5352 36.3204 25.3663 36.3204C25.193 36.3204 25.0352 36.3582 24.893 36.4338C24.7552 36.5093 24.6552 36.6182 24.593 36.7604L23.853 36.5938L24.2463 33.8338H26.953V34.6004H24.6063L24.9463 34.2071L24.6663 36.2871L24.4063 36.0738C24.5307 35.8916 24.6819 35.7582 24.8596 35.6738C25.0419 35.5893 25.2619 35.5471 25.5196 35.5471C25.8485 35.5471 26.133 35.6182 26.373 35.7604C26.6174 35.9027 26.8063 36.096 26.9396 36.3404C27.073 36.5849 27.1396 36.8671 27.1396 37.1871C27.1396 37.5071 27.0619 37.796 26.9063 38.0538C26.7507 38.3116 26.5396 38.5138 26.273 38.6604C26.0063 38.8071 25.7041 38.8804 25.3663 38.8804Z" fill="currentcolor"/>
<path d="M28.2479 38.8004L29.9345 36.6271L30.0879 36.7871C30.0212 36.836 29.9568 36.876 29.8945 36.9071C29.8323 36.9382 29.7656 36.9604 29.6945 36.9738C29.6234 36.9871 29.5479 36.9938 29.4679 36.9938C29.1656 36.9938 28.8968 36.9249 28.6612 36.7871C28.4256 36.6493 28.239 36.4627 28.1012 36.2271C27.9679 35.9871 27.9012 35.716 27.9012 35.4138C27.9012 35.0938 27.9745 34.8093 28.1212 34.5604C28.2723 34.3116 28.4768 34.116 28.7345 33.9738C28.9968 33.8271 29.2945 33.7538 29.6279 33.7538C29.9656 33.7538 30.2634 33.8249 30.5212 33.9671C30.779 34.1093 30.9812 34.3049 31.1279 34.5538C31.279 34.7982 31.3545 35.0804 31.3545 35.4004C31.3545 35.5604 31.3368 35.7204 31.3012 35.8804C31.2656 36.0404 31.2012 36.2116 31.1079 36.3938C31.019 36.5716 30.8901 36.7738 30.7212 37.0004L29.3345 38.8004H28.2479ZM29.6279 36.2338C29.7834 36.2338 29.9212 36.2004 30.0412 36.1338C30.1656 36.0627 30.2634 35.9649 30.3345 35.8404C30.4056 35.7116 30.4412 35.5671 30.4412 35.4071C30.4412 35.2382 30.4034 35.0916 30.3279 34.9671C30.2568 34.8427 30.1612 34.7449 30.0412 34.6738C29.9212 34.6027 29.7834 34.5671 29.6279 34.5671C29.4768 34.5671 29.339 34.6027 29.2145 34.6738C29.0901 34.7449 28.9901 34.8427 28.9145 34.9671C28.8434 35.0916 28.8079 35.2382 28.8079 35.4071C28.8079 35.5671 28.8434 35.7116 28.9145 35.8404C28.9901 35.9649 29.0901 36.0627 29.2145 36.1338C29.339 36.2004 29.4768 36.2338 29.6279 36.2338Z" fill="currentcolor"/>
<path d="M32.2449 38.8004L34.3116 34.6004H31.9716V33.8338H35.2649V34.6004L33.2449 38.8004H32.2449Z" fill="currentcolor"/>
<path d="M4.26562 18.0498C4.26562 17.3594 4.82527 16.7998 5.51562 16.7998H9.81563C10.506 16.7998 11.0656 17.3594 11.0656 18.0498V20.4976H4.26562V18.0498Z" fill="#202020"/>
<path fill-rule="evenodd" clip-rule="evenodd" d="M11.0656 21.8838H4.26562L4.26563 44.4171H11.0656L11.0656 21.8838ZM7.66562 47.9993L4.26563 44.4171H11.0656L7.66562 47.9993Z" fill="#202020"/>
</svg>
