<svg width="100%" height="100%" viewBox="0 0 823 51" xmlns="http://www.w3.org/2000/svg" id="ribbon">
  <path d="M42.8016 11.7567C11.2474 27.1769 4.73226 29.5745 0.0145905 35.0528C0.0145845 37.2332 -0.314546 37.5775 2.15394 39.7579C22.4763 30.09 48.726 16.4618 59.2582 19.9046C69.7904 23.3473 75.0565 53.0317 98.0956 50.8895C114.059 49.4053 109.78 39.8727 143.351 21.8555C153.061 40.3317 170.175 42.0387 180.708 34.7085C184.005 32.4133 192.206 27.8429 198.81 22.8883C202.468 36.776 217.735 41.4793 226.621 36.7742C234.698 32.498 241.926 26.5606 253.116 21.8555C282.409 47.6763 276.156 32.1838 317.791 18.9865C345.273 56.6275 366.008 28.9705 398.099 19.5603C429.202 57.6603 447.468 32.9871 479.065 19.5603C496.015 49.5124 511.32 29.3148 541.764 16.5765C579.285 44.3483 586.197 24.2654 619.275 15.6585C646.099 50.8895 658.112 16.4618 693.658 17.4946C707.646 35.7413 724.174 32.2606 752.737 17.9536C752.737 17.9536 758.55 24.2684 766.232 25.1835C777.751 26.5558 777.751 23.1178 797.993 16.4618C805.563 13.9725 810.554 11.9036 822.842 11.1829V3.14967C812.291 4.32351 803.259 3.86177 795.195 7.05153C775.028 15.029 769.136 12.1346 765.244 7.85484C763.807 6.27419 764.209 4.69729 762.94 3.14967C754.383 -7.29325 732.331 11.2976 712.419 14.6256C700.735 -4.88348 668.809 0.969312 640.01 15.1994C640.01 15.1994 632.111 3.2552 622.566 0.969322C606.274 -2.93244 591.299 6.70723 572.044 15.1994C563.314 19.0499 549.663 1.42833 540.283 1.42833C526.131 1.42833 497.332 18.6422 497.332 18.6422C497.332 18.6422 496.882 8.62536 487.787 4.8711C469.52 -2.66915 443.519 20.2488 429.202 24.3802C414.411 28.6481 420.15 11.5138 405.504 5.10062C390.858 -1.31255 352.349 22.8883 342.64 23.3473C336.876 23.6199 333.589 6.70724 321.905 4.8711C302.361 1.79978 272.041 20.2488 272.041 20.2488C272.041 20.2488 265.294 8.88767 253.116 6.70724C238.622 4.1121 217.735 21.3964 217.735 21.3964C217.735 21.3964 219.874 6.70724 205.721 3.83826C197.182 2.10723 163.264 23.9211 163.264 23.9211C163.264 23.9211 156.967 11.8391 145.984 7.74008C132.654 2.76503 105.007 29.4296 93.3233 37.3479C86.4297 42.0197 74.3559 -3.66356 42.8016 11.7567Z"/>
</svg>
