<svg width="21" height="20" viewBox="0 0 21 20" xmlns="http://www.w3.org/2000/svg">
<path fill-rule="evenodd" clip-rule="evenodd" d="M16.2559 1.91083C15.9305 1.58539 15.4028 1.58539 15.0774 1.91083L7.57741 9.41083C7.25197 9.73626 7.25197 10.2639 7.57741 10.5893L15.0774 18.0893C15.4028 18.4148 15.9305 18.4148 16.2559 18.0893C16.5814 17.7639 16.5814 17.2363 16.2559 16.9108L9.34518 10.0001L16.2559 3.08934C16.5814 2.7639 16.5814 2.23626 16.2559 1.91083Z"/>
<path fill-rule="evenodd" clip-rule="evenodd" d="M5.08163 2C4.62047 2 4.24663 2.51167 4.24663 3.14286V16.8571C4.24663 17.4883 4.62047 18 5.08163 18C5.54278 18 5.91663 17.4883 5.91663 16.8571V3.14286C5.91663 2.51167 5.54278 2 5.08163 2Z"/>
</svg>
