<svg width="24" height="24" viewBox="0 0 24 24" fill="none" xmlns="http://www.w3.org/2000/svg">
<g clip-path="url(#clip0_320_4570)">
<g clip-path="url(#clip1_320_4570)">
<path d="M12.7245 23.8141H12.2754C5.87574 23.8141 0.673645 18.5168 0.673645 12.0001C0.673645 5.48329 5.87574 0.186035 12.2754 0.186035H12.7245C19.1242 0.186035 24.3263 5.48329 24.3263 12.0001C24.3263 18.5168 19.1617 23.8141 12.7245 23.8141Z" fill="#00C72E"/>
<path d="M12.7246 24.5H12.2754C5.5015 24.5 0 18.8979 0 12C0 5.10213 5.5015 -0.5 12.2754 -0.5H12.7246C19.4985 -0.5 25 5.10213 25 12C25 18.8979 19.4985 24.5 12.7246 24.5ZM12.2754 0.833841C6.25 0.833841 1.30988 5.86433 1.30988 12C1.30988 18.1357 6.25 23.128 12.2754 23.128H12.7246C18.75 23.128 23.6901 18.1357 23.6901 11.9619C23.6901 5.86433 18.7874 0.833841 12.7246 0.833841H12.2754Z" fill="white"/>
<path d="M12.7245 3.00612C17.5898 3.00612 21.5569 7.04576 21.5569 12C21.5569 16.9543 17.5898 20.9939 12.7245 20.9939H12.2754C7.41017 20.9939 3.44311 16.9543 3.44311 12C3.44311 7.04576 7.41017 3.00612 12.2754 3.00612H12.7245ZM12.7245 2.58691H12.2754C7.18562 2.58691 3.03143 6.8171 3.03143 12C3.03143 17.183 7.18562 21.4131 12.2754 21.4131H12.7245C17.8144 21.4131 21.9686 17.183 21.9686 12C21.9686 6.8171 17.8144 2.58691 12.7245 2.58691Z" fill="#00C72E"/>
<path d="M17.515 7.16003L11.0778 13.7149L8.49549 11.1234L6.73651 12.9146L11.0778 17.3353L19.2739 8.95119L17.515 7.16003Z" fill="white"/>
</g>
</g>
<defs>
<clipPath id="clip0_320_4570">
<rect width="24" height="24" fill="white"/>
</clipPath>
<clipPath id="clip1_320_4570">
<rect width="25" height="25" fill="white" transform="translate(0 -0.5)"/>
</clipPath>
</defs>
</svg>
