<svg width="32" height="32" viewBox="0 0 32 32" fill="none" xmlns="http://www.w3.org/2000/svg">
  <path d="M21.3333 21.3333L16 16L10.6667 21.3333" stroke="#616161" stroke-opacity="0.8" stroke-width="2" stroke-linecap="round" stroke-linejoin="round"/>
  <path d="M16 16V28" stroke="#616161" stroke-opacity="0.8" stroke-width="2" stroke-linecap="round" stroke-linejoin="round"/>
  <path d="M27.1867 24.5199C28.4871 23.8109 29.5144 22.6891 30.1065 21.3314C30.6985 19.9737 30.8216 18.4575 30.4563 17.0222C30.0909 15.5868 29.258 14.3139 28.0889 13.4045C26.9198 12.4951 25.4811 12.0009 24 11.9999H22.32C21.9164 10.4389 21.1642 8.98968 20.1199 7.76122C19.0756 6.53277 17.7665 5.55703 16.2908 4.90737C14.8151 4.25772 13.2114 3.95104 11.6001 4.01041C9.9889 4.06977 8.41208 4.49363 6.98823 5.25012C5.56437 6.0066 4.33054 7.07603 3.37949 8.37801C2.42844 9.67998 1.78491 11.1806 1.4973 12.7671C1.20969 14.3536 1.28547 15.9846 1.71894 17.5376C2.15242 19.0906 2.93232 20.5251 3.99999 21.7332" stroke="#616161" stroke-opacity="0.8" stroke-width="2" stroke-linecap="round" stroke-linejoin="round"/>
  <path d="M21.3333 21.3333L16 16L10.6667 21.3333" stroke="#616161" stroke-opacity="0.8" stroke-width="2" stroke-linecap="round" stroke-linejoin="round"/>
</svg>
