<svg width="130" height="130" viewBox="0 0 130 130" fill="none" xmlns="http://www.w3.org/2000/svg">
<circle cx="65" cy="65" r="65" fill="#C9FFCB"/>
<path d="M64.75 14C78.2097 14 91.1182 19.3469 100.636 28.8643C110.153 38.3818 115.5 51.2903 115.5 64.75C115.5 78.2097 110.153 91.1182 100.636 100.636C91.1182 110.153 78.2097 115.5 64.75 115.5C51.2903 115.5 38.3818 110.153 28.8643 100.636C19.3469 91.1182 14 78.2097 14 64.75C14 51.2903 19.3469 38.3818 28.8643 28.8643C38.3818 19.3469 51.2903 14 64.75 14ZM58.428 74.7622L47.1543 63.4812C46.7501 63.0771 46.2703 62.7565 45.7422 62.5378C45.2142 62.319 44.6482 62.2065 44.0766 62.2065C43.5051 62.2065 42.9391 62.319 42.411 62.5378C41.883 62.7565 41.4032 63.0771 40.999 63.4812C40.1828 64.2975 39.7242 65.4045 39.7242 66.5589C39.7242 67.7132 40.1828 68.8203 40.999 69.6365L55.354 83.9915C55.757 84.3977 56.2365 84.7201 56.7647 84.9401C57.2929 85.1601 57.8594 85.2733 58.4316 85.2733C59.0038 85.2733 59.5704 85.1601 60.0986 84.9401C60.6268 84.7201 61.1062 84.3977 61.5093 83.9915L91.2343 54.2593C91.6438 53.8568 91.9696 53.3772 92.1929 52.8481C92.4162 52.3191 92.5325 51.7511 92.5352 51.1769C92.5379 50.6027 92.4268 50.0336 92.2085 49.5025C91.9901 48.9714 91.6688 48.4888 91.263 48.0826C90.8572 47.6763 90.375 47.3544 89.8441 47.1354C89.3133 46.9164 88.7444 46.8047 88.1701 46.8067C87.5959 46.8087 87.0278 46.9243 86.4985 47.147C85.9692 47.3697 85.4892 47.6949 85.0863 48.104L58.428 74.7622Z" fill="#22BA28"/>
</svg>
