<svg width="24" height="24" viewBox="0 0 24 24" fill="none" xmlns="http://www.w3.org/2000/svg">
<path d="M12 24C18.6274 24 24 18.6274 24 12C24 5.37258 18.6274 0 12 0C5.37258 0 0 5.37258 0 12C0 18.6274 5.37258 24 12 24Z" fill="#627EEA"/>
<path d="M12.373 3.00098V9.65348L17.9958 12.166L12.373 3.00098Z" fill="white" fill-opacity="0.602"/>
<path d="M12.3735 3.00098L6.75 12.166L12.3735 9.65348V3.00098Z" fill="white"/>
<path d="M12.373 16.4779V20.9981L17.9995 13.2139L12.373 16.4779Z" fill="white" fill-opacity="0.602"/>
<path d="M12.3735 20.9971V16.4761L6.75 13.2129L12.3735 20.9971Z" fill="white"/>
<path d="M12.373 15.431L17.9958 12.1663L12.373 9.65527V15.431Z" fill="white" fill-opacity="0.2"/>
<path d="M6.75 12.1663L12.3735 15.431V9.65527L6.75 12.1663Z" fill="white" fill-opacity="0.602"/>
</svg>
