<svg width="20" height="20" viewBox="0 0 20 20" fill="none" xmlns="http://www.w3.org/2000/svg">
<path d="M10.0003 1.66699C5.40033 1.66699 1.66699 5.40033 1.66699 10.0003C1.66699 14.6003 5.40033 18.3337 10.0003 18.3337C14.6003 18.3337 18.3337 14.6003 18.3337 10.0003C18.3337 5.40033 14.6003 1.66699 10.0003 1.66699ZM10.0003 10.8337C9.54199 10.8337 9.16699 10.4587 9.16699 10.0003V6.66699C9.16699 6.20866 9.54199 5.83366 10.0003 5.83366C10.4587 5.83366 10.8337 6.20866 10.8337 6.66699V10.0003C10.8337 10.4587 10.4587 10.8337 10.0003 10.8337ZM10.8337 14.167H9.16699V12.5003H10.8337V14.167Z" fill="#FF1717"/>
</svg>
