<svg width="48" height="48" viewBox="0 0 48 48" fill="none" xmlns="http://www.w3.org/2000/svg">
<path fill-rule="evenodd" clip-rule="evenodd" d="M30.9419 0.0205078L30.9214 0.0410156L44.8821 14.041V43.9997C44.8821 46.2089 43.0912 47.9997 40.8821 47.9997H7C4.79086 47.9997 3 46.2089 3 43.9997V4.0205C3 1.81137 4.79086 0.0205078 7 0.0205078H30.9419Z" fill="#E2574C"/>
<path fill-rule="evenodd" clip-rule="evenodd" d="M31.0391 0.0186806H31.001L31.001 11.0087C31.001 12.6675 32.3425 14.0122 33.9974 14.0123L44.9995 14.0123L31.0391 0.0186806Z" fill="#B53629"/>
<path d="M17.368 20.6205C17.784 20.6205 18.172 20.7405 18.532 20.9805C18.9 21.2205 19.196 21.5445 19.42 21.9525C19.644 22.3605 19.756 22.8165 19.756 23.3205C19.756 23.8165 19.644 24.2685 19.42 24.6765C19.196 25.0845 18.9 25.4125 18.532 25.6605C18.172 25.9005 17.784 26.0205 17.368 26.0205H15.16L15.28 25.8045V28.2885C15.28 28.4965 15.216 28.6725 15.088 28.8165C14.96 28.9525 14.792 29.0205 14.584 29.0205C14.384 29.0205 14.22 28.9525 14.092 28.8165C13.964 28.6725 13.9 28.4965 13.9 28.2885V21.3525C13.9 21.1445 13.968 20.9725 14.104 20.8365C14.248 20.6925 14.424 20.6205 14.632 20.6205H17.368ZM17.368 24.6525C17.52 24.6525 17.668 24.5885 17.812 24.4605C17.956 24.3325 18.076 24.1685 18.172 23.9685C18.268 23.7605 18.316 23.5445 18.316 23.3205C18.316 23.0885 18.268 22.8725 18.172 22.6725C18.076 22.4725 17.956 22.3125 17.812 22.1925C17.668 22.0645 17.52 22.0005 17.368 22.0005H15.136L15.28 21.7845V24.8445L15.148 24.6525H17.368ZM24.7305 20.6205C25.3065 20.6205 25.8185 20.7285 26.2665 20.9445C26.7145 21.1605 27.0905 21.4645 27.3945 21.8565C27.7065 22.2405 27.9385 22.6885 28.0905 23.2005C28.2505 23.7045 28.3305 24.2445 28.3305 24.8205C28.3305 25.5965 28.1905 26.3045 27.9105 26.9445C27.6305 27.5765 27.2225 28.0805 26.6865 28.4565C26.1585 28.8325 25.5065 29.0205 24.7305 29.0205H21.8625C21.6545 29.0205 21.4785 28.9525 21.3345 28.8165C21.1985 28.6725 21.1305 28.4965 21.1305 28.2885V21.3525C21.1305 21.1445 21.1985 20.9725 21.3345 20.8365C21.4785 20.6925 21.6545 20.6205 21.8625 20.6205H24.7305ZM24.6105 27.6405C25.1145 27.6405 25.5265 27.5125 25.8465 27.2565C26.1665 26.9925 26.3985 26.6485 26.5425 26.2245C26.6945 25.7925 26.7705 25.3245 26.7705 24.8205C26.7705 24.4445 26.7265 24.0885 26.6385 23.7525C26.5585 23.4085 26.4305 23.1085 26.2545 22.8525C26.0785 22.5885 25.8545 22.3805 25.5825 22.2285C25.3105 22.0765 24.9865 22.0005 24.6105 22.0005H22.5105L22.6305 21.8925V27.7725L22.5585 27.6405H24.6105ZM30.4646 29.0205C30.2406 29.0205 30.0566 28.9525 29.9126 28.8165C29.7766 28.6725 29.7086 28.4965 29.7086 28.2885V21.3525C29.7086 21.1445 29.7766 20.9725 29.9126 20.8365C30.0566 20.6925 30.2326 20.6205 30.4406 20.6205H34.3406C34.5486 20.6205 34.7206 20.6885 34.8566 20.8245C35.0006 20.9525 35.0726 21.1205 35.0726 21.3285C35.0726 21.5045 35.0006 21.6605 34.8566 21.7965C34.7206 21.9325 34.5486 22.0005 34.3406 22.0005H31.1006L31.2086 21.8565V24.2685L31.1246 24.1125H33.8006C34.0086 24.1125 34.1806 24.1805 34.3166 24.3165C34.4606 24.4445 34.5326 24.6125 34.5326 24.8205C34.5326 24.9965 34.4606 25.1525 34.3166 25.2885C34.1806 25.4245 34.0086 25.4925 33.8006 25.4925H31.1006L31.2086 25.3845V28.2885C31.2086 28.4965 31.1326 28.6725 30.9806 28.8165C30.8366 28.9525 30.6646 29.0205 30.4646 29.0205Z" fill="white"/>
</svg>
