<svg width="48" height="48" viewBox="0 0 48 48" fill="none" xmlns="http://www.w3.org/2000/svg">
<path fill-rule="evenodd" clip-rule="evenodd" d="M30.9419 0.0205078L30.9214 0.0410156L44.8821 14.041V43.9997C44.8821 46.2089 43.0912 47.9997 40.8821 47.9997H7C4.79086 47.9997 3 46.2089 3 43.9997V4.0205C3 1.81137 4.79086 0.0205078 7 0.0205078H30.9419Z" fill="#518EF8"/>
<path fill-rule="evenodd" clip-rule="evenodd" d="M31.0391 0.0186806H31.001L31.001 11.0087C31.001 12.6675 32.3425 14.0123 33.9974 14.0123L44.9995 14.0122L31.0391 0.0186806Z" fill="#3764B3"/>
<path d="M15.5 20.6205C16.076 20.6205 16.588 20.7285 17.036 20.9445C17.484 21.1605 17.86 21.4645 18.164 21.8565C18.476 22.2405 18.708 22.6885 18.86 23.2005C19.02 23.7045 19.1 24.2445 19.1 24.8205C19.1 25.5965 18.96 26.3045 18.68 26.9445C18.4 27.5765 17.992 28.0805 17.456 28.4565C16.928 28.8325 16.276 29.0205 15.5 29.0205H12.632C12.424 29.0205 12.248 28.9525 12.104 28.8165C11.968 28.6725 11.9 28.4965 11.9 28.2885V21.3525C11.9 21.1445 11.968 20.9725 12.104 20.8365C12.248 20.6925 12.424 20.6205 12.632 20.6205H15.5ZM15.38 27.6405C15.884 27.6405 16.296 27.5125 16.616 27.2565C16.936 26.9925 17.168 26.6485 17.312 26.2245C17.464 25.7925 17.54 25.3245 17.54 24.8205C17.54 24.4445 17.496 24.0885 17.408 23.7525C17.328 23.4085 17.2 23.1085 17.024 22.8525C16.848 22.5885 16.624 22.3805 16.352 22.2285C16.08 22.0765 15.756 22.0005 15.38 22.0005H13.28L13.4 21.8925V27.7725L13.328 27.6405H15.38ZM28.2061 24.8205C28.2061 25.4205 28.1061 25.9805 27.9061 26.5005C27.7061 27.0205 27.4221 27.4805 27.0541 27.8805C26.6941 28.2725 26.2621 28.5805 25.7581 28.8045C25.2621 29.0285 24.7181 29.1405 24.1261 29.1405C23.5341 29.1405 22.9901 29.0285 22.4941 28.8045C21.9981 28.5805 21.5661 28.2725 21.1981 27.8805C20.8381 27.4805 20.5581 27.0205 20.3581 26.5005C20.1581 25.9805 20.0581 25.4205 20.0581 24.8205C20.0581 24.2205 20.1581 23.6605 20.3581 23.1405C20.5581 22.6205 20.8381 22.1645 21.1981 21.7725C21.5661 21.3725 21.9981 21.0605 22.4941 20.8365C22.9901 20.6125 23.5341 20.5005 24.1261 20.5005C24.7181 20.5005 25.2621 20.6125 25.7581 20.8365C26.2621 21.0605 26.6941 21.3725 27.0541 21.7725C27.4221 22.1645 27.7061 22.6205 27.9061 23.1405C28.1061 23.6605 28.2061 24.2205 28.2061 24.8205ZM26.6461 24.8205C26.6461 24.2845 26.5381 23.8005 26.3221 23.3685C26.1061 22.9285 25.8101 22.5805 25.4341 22.3245C25.0581 22.0685 24.6221 21.9405 24.1261 21.9405C23.6301 21.9405 23.1941 22.0685 22.8181 22.3245C22.4421 22.5805 22.1461 22.9245 21.9301 23.3565C21.7221 23.7885 21.6181 24.2765 21.6181 24.8205C21.6181 25.3565 21.7221 25.8445 21.9301 26.2845C22.1461 26.7165 22.4421 27.0605 22.8181 27.3165C23.1941 27.5725 23.6301 27.7005 24.1261 27.7005C24.6221 27.7005 25.0581 27.5725 25.4341 27.3165C25.8101 27.0605 26.1061 26.7165 26.3221 26.2845C26.5381 25.8445 26.6461 25.3565 26.6461 24.8205ZM35.4636 21.0285C35.6716 21.1325 35.7916 21.2965 35.8236 21.5205C35.8636 21.7445 35.8076 21.9485 35.6556 22.1325C35.5516 22.2765 35.4156 22.3565 35.2476 22.3725C35.0876 22.3885 34.9236 22.3565 34.7556 22.2765C34.5636 22.1885 34.3596 22.1205 34.1436 22.0725C33.9356 22.0245 33.7156 22.0005 33.4836 22.0005C33.0516 22.0005 32.6636 22.0685 32.3196 22.2045C31.9836 22.3405 31.6956 22.5365 31.4556 22.7925C31.2156 23.0405 31.0316 23.3365 30.9036 23.6805C30.7836 24.0245 30.7236 24.4045 30.7236 24.8205C30.7236 25.3085 30.7916 25.7325 30.9276 26.0925C31.0716 26.4525 31.2676 26.7525 31.5156 26.9925C31.7636 27.2325 32.0556 27.4125 32.3916 27.5325C32.7276 27.6445 33.0916 27.7005 33.4836 27.7005C33.6996 27.7005 33.9156 27.6805 34.1316 27.6405C34.3476 27.6005 34.5556 27.5285 34.7556 27.4245C34.9236 27.3445 35.0876 27.3165 35.2476 27.3405C35.4156 27.3645 35.5556 27.4485 35.6676 27.5925C35.8276 27.7925 35.8836 28.0005 35.8356 28.2165C35.7956 28.4245 35.6756 28.5765 35.4756 28.6725C35.2676 28.7765 35.0516 28.8645 34.8276 28.9365C34.6116 29.0005 34.3916 29.0485 34.1676 29.0805C33.9436 29.1205 33.7156 29.1405 33.4836 29.1405C32.9076 29.1405 32.3596 29.0485 31.8396 28.8645C31.3276 28.6805 30.8676 28.4085 30.4596 28.0485C30.0596 27.6885 29.7436 27.2405 29.5116 26.7045C29.2796 26.1605 29.1636 25.5325 29.1636 24.8205C29.1636 24.2045 29.2676 23.6365 29.4756 23.1165C29.6916 22.5965 29.9916 22.1485 30.3756 21.7725C30.7676 21.3885 31.2276 21.0925 31.7556 20.8845C32.2836 20.6685 32.8596 20.5605 33.4836 20.5605C33.8356 20.5605 34.1796 20.6005 34.5156 20.6805C34.8516 20.7605 35.1676 20.8765 35.4636 21.0285Z" fill="white"/>
</svg>
