<svg width="48" height="48" viewBox="0 0 48 48" fill="none" xmlns="http://www.w3.org/2000/svg">
<path fill-rule="evenodd" clip-rule="evenodd" d="M30.9419 0.0205078L30.9214 0.0410156L44.8821 14.041V43.9997C44.8821 46.2089 43.0912 47.9997 40.8821 47.9997H7C4.79086 47.9997 3 46.2089 3 43.9997V4.0205C3 1.81137 4.79086 0.0205078 7 0.0205078H30.9419Z" fill="#AF51F8"/>
<path fill-rule="evenodd" clip-rule="evenodd" d="M31.0391 0.0186806H31.001L31.001 11.0087C31.001 12.6675 32.3425 14.0122 33.9974 14.0123L44.9995 14.0123L31.0391 0.0186806Z" fill="#8334C0"/>
<path d="M19.648 20.6085C19.832 20.6085 19.988 20.6805 20.116 20.8245C20.252 20.9685 20.32 21.1205 20.32 21.2805C20.32 21.4325 20.268 21.5765 20.164 21.7125L17.752 24.8925L16.936 23.7765L19.06 20.9565C19.228 20.7245 19.424 20.6085 19.648 20.6085ZM14.296 20.5845C14.528 20.5845 14.724 20.6885 14.884 20.8965L20.164 27.9165C20.26 28.0445 20.308 28.1925 20.308 28.3605C20.308 28.5845 20.228 28.7605 20.068 28.8885C19.908 29.0165 19.748 29.0805 19.588 29.0805C19.356 29.0805 19.16 28.9765 19 28.7685L13.72 21.7485C13.616 21.6205 13.564 21.4765 13.564 21.3165C13.564 21.1085 13.64 20.9365 13.792 20.8005C13.952 20.6565 14.12 20.5845 14.296 20.5845ZM14.188 29.0805C14.012 29.0805 13.86 29.0165 13.732 28.8885C13.604 28.7525 13.54 28.6045 13.54 28.4445C13.54 28.2685 13.6 28.1045 13.72 27.9525L16.156 24.6525L16.948 25.8165L14.788 28.7445C14.628 28.9685 14.428 29.0805 14.188 29.0805ZM26.3953 27.6165C26.6033 27.6165 26.7753 27.6845 26.9113 27.8205C27.0553 27.9485 27.1273 28.1165 27.1273 28.3245C27.1273 28.5245 27.0553 28.6925 26.9113 28.8285C26.7753 28.9565 26.6033 29.0205 26.3953 29.0205H22.4953C22.2873 29.0205 22.1113 28.9525 21.9673 28.8165C21.8313 28.6725 21.7633 28.4965 21.7633 28.2885V21.3525C21.7633 21.1445 21.8353 20.9725 21.9793 20.8365C22.1233 20.6925 22.3073 20.6205 22.5313 20.6205C22.7233 20.6205 22.8913 20.6925 23.0353 20.8365C23.1873 20.9725 23.2633 21.1445 23.2633 21.3525V27.8205L22.9993 27.6165H26.3953ZM31.2016 29.1405C30.6416 29.1405 30.1376 29.0725 29.6896 28.9365C29.2416 28.7925 28.8136 28.5445 28.4056 28.1925C28.3016 28.1045 28.2216 28.0045 28.1656 27.8925C28.1096 27.7805 28.0816 27.6685 28.0816 27.5565C28.0816 27.3725 28.1456 27.2125 28.2736 27.0765C28.4096 26.9325 28.5776 26.8605 28.7776 26.8605C28.9296 26.8605 29.0656 26.9085 29.1856 27.0045C29.4896 27.2525 29.7896 27.4405 30.0856 27.5685C30.3896 27.6965 30.7616 27.7605 31.2016 27.7605C31.4976 27.7605 31.7696 27.7165 32.0176 27.6285C32.2656 27.5325 32.4656 27.4085 32.6176 27.2565C32.7696 27.0965 32.8456 26.9165 32.8456 26.7165C32.8456 26.4765 32.7736 26.2725 32.6296 26.1045C32.4856 25.9365 32.2656 25.7965 31.9696 25.6845C31.6736 25.5645 31.2976 25.4725 30.8416 25.4085C30.4096 25.3445 30.0296 25.2485 29.7016 25.1205C29.3736 24.9845 29.0976 24.8165 28.8736 24.6165C28.6576 24.4085 28.4936 24.1685 28.3816 23.8965C28.2696 23.6165 28.2136 23.3045 28.2136 22.9605C28.2136 22.4405 28.3456 21.9965 28.6096 21.6285C28.8816 21.2605 29.2456 20.9805 29.7016 20.7885C30.1576 20.5965 30.6616 20.5005 31.2136 20.5005C31.7336 20.5005 32.2136 20.5805 32.6536 20.7405C33.1016 20.8925 33.4656 21.0885 33.7456 21.3285C33.9776 21.5125 34.0936 21.7245 34.0936 21.9645C34.0936 22.1405 34.0256 22.3005 33.8896 22.4445C33.7536 22.5885 33.5936 22.6605 33.4096 22.6605C33.2896 22.6605 33.1816 22.6245 33.0856 22.5525C32.9576 22.4405 32.7856 22.3365 32.5696 22.2405C32.3536 22.1365 32.1256 22.0525 31.8856 21.9885C31.6456 21.9165 31.4216 21.8805 31.2136 21.8805C30.8696 21.8805 30.5776 21.9245 30.3376 22.0125C30.1056 22.1005 29.9296 22.2205 29.8096 22.3725C29.6896 22.5245 29.6296 22.7005 29.6296 22.9005C29.6296 23.1405 29.6976 23.3405 29.8336 23.5005C29.9776 23.6525 30.1816 23.7765 30.4456 23.8725C30.7096 23.9605 31.0256 24.0405 31.3936 24.1125C31.8736 24.2005 32.2936 24.3045 32.6536 24.4245C33.0216 24.5445 33.3256 24.7005 33.5656 24.8925C33.8056 25.0765 33.9856 25.3125 34.1056 25.6005C34.2256 25.8805 34.2856 26.2245 34.2856 26.6325C34.2856 27.1525 34.1416 27.6005 33.8536 27.9765C33.5656 28.3525 33.1856 28.6405 32.7136 28.8405C32.2496 29.0405 31.7456 29.1405 31.2016 29.1405Z" fill="white"/>
</svg>
