<svg width="48" height="48" viewBox="0 0 48 48" fill="none" xmlns="http://www.w3.org/2000/svg">
<path fill-rule="evenodd" clip-rule="evenodd" d="M30.9423 0.0214844L30.9218 0.0420369L44.8821 14.0416V44.0007C44.8821 46.2098 43.0912 48.0007 40.8821 48.0007H7C4.79086 48.0007 3 46.2098 3 44.0007V4.02148C3 1.81234 4.79086 0.0214844 7 0.0214844H30.9423Z" fill="#6ADBFF"/>
<path fill-rule="evenodd" clip-rule="evenodd" d="M31.0381 0.0186802L31 0.0186802L31 11.0087C31 12.6675 32.3415 14.0123 33.9964 14.0123L44.9985 14.0123L31.0381 0.0186802Z" fill="#3DBAE1"/>
<path d="M10.9175 29.1405C10.4615 29.1405 10.0375 29.0485 9.64552 28.8645C9.25352 28.6805 8.93352 28.4165 8.68552 28.0725C8.58952 27.9285 8.54152 27.7885 8.54152 27.6525C8.54152 27.4525 8.61752 27.2845 8.76952 27.1485C8.92952 27.0125 9.08552 26.9445 9.23752 26.9445C9.35752 26.9445 9.47352 26.9805 9.58552 27.0525C9.70552 27.1245 9.81352 27.2085 9.90952 27.3045C10.0695 27.4485 10.2255 27.5525 10.3775 27.6165C10.5375 27.6725 10.7175 27.7005 10.9175 27.7005C11.1575 27.7005 11.3815 27.6405 11.5895 27.5205C11.7975 27.4005 11.9655 27.2405 12.0935 27.0405C12.2215 26.8405 12.2855 26.6245 12.2855 26.3925V21.3525C12.2855 21.1445 12.3615 20.9725 12.5135 20.8365C12.6655 20.6925 12.8415 20.6205 13.0415 20.6205C13.2655 20.6205 13.4455 20.6925 13.5815 20.8365C13.7175 20.9725 13.7855 21.1445 13.7855 21.3525V26.3925C13.7855 26.8805 13.6575 27.3325 13.4015 27.7485C13.1455 28.1645 12.8015 28.5005 12.3695 28.7565C11.9375 29.0125 11.4535 29.1405 10.9175 29.1405ZM18.2826 29.1405C17.7226 29.1405 17.2186 29.0725 16.7706 28.9365C16.3226 28.7925 15.8946 28.5445 15.4866 28.1925C15.3826 28.1045 15.3026 28.0045 15.2466 27.8925C15.1906 27.7805 15.1626 27.6685 15.1626 27.5565C15.1626 27.3725 15.2266 27.2125 15.3546 27.0765C15.4906 26.9325 15.6586 26.8605 15.8586 26.8605C16.0106 26.8605 16.1466 26.9085 16.2666 27.0045C16.5706 27.2525 16.8706 27.4405 17.1666 27.5685C17.4706 27.6965 17.8426 27.7605 18.2826 27.7605C18.5786 27.7605 18.8506 27.7165 19.0986 27.6285C19.3466 27.5325 19.5466 27.4085 19.6986 27.2565C19.8506 27.0965 19.9266 26.9165 19.9266 26.7165C19.9266 26.4765 19.8546 26.2725 19.7106 26.1045C19.5666 25.9365 19.3466 25.7965 19.0506 25.6845C18.7546 25.5645 18.3786 25.4725 17.9226 25.4085C17.4906 25.3445 17.1106 25.2485 16.7826 25.1205C16.4546 24.9845 16.1786 24.8165 15.9546 24.6165C15.7386 24.4085 15.5746 24.1685 15.4626 23.8965C15.3506 23.6165 15.2946 23.3045 15.2946 22.9605C15.2946 22.4405 15.4266 21.9965 15.6906 21.6285C15.9626 21.2605 16.3266 20.9805 16.7826 20.7885C17.2386 20.5965 17.7426 20.5005 18.2946 20.5005C18.8146 20.5005 19.2946 20.5805 19.7346 20.7405C20.1826 20.8925 20.5466 21.0885 20.8266 21.3285C21.0586 21.5125 21.1746 21.7245 21.1746 21.9645C21.1746 22.1405 21.1066 22.3005 20.9706 22.4445C20.8346 22.5885 20.6746 22.6605 20.4906 22.6605C20.3706 22.6605 20.2626 22.6245 20.1666 22.5525C20.0386 22.4405 19.8666 22.3365 19.6506 22.2405C19.4346 22.1365 19.2066 22.0525 18.9666 21.9885C18.7266 21.9165 18.5026 21.8805 18.2946 21.8805C17.9506 21.8805 17.6586 21.9245 17.4186 22.0125C17.1866 22.1005 17.0106 22.2205 16.8906 22.3725C16.7706 22.5245 16.7106 22.7005 16.7106 22.9005C16.7106 23.1405 16.7786 23.3405 16.9146 23.5005C17.0586 23.6525 17.2626 23.7765 17.5266 23.8725C17.7906 23.9605 18.1066 24.0405 18.4746 24.1125C18.9546 24.2005 19.3746 24.3045 19.7346 24.4245C20.1026 24.5445 20.4066 24.7005 20.6466 24.8925C20.8866 25.0765 21.0666 25.3125 21.1866 25.6005C21.3066 25.8805 21.3666 26.2245 21.3666 26.6325C21.3666 27.1525 21.2226 27.6005 20.9346 27.9765C20.6466 28.3525 20.2666 28.6405 19.7946 28.8405C19.3306 29.0405 18.8266 29.1405 18.2826 29.1405ZM30.4708 24.8205C30.4708 25.4205 30.3708 25.9805 30.1708 26.5005C29.9708 27.0205 29.6868 27.4805 29.3188 27.8805C28.9588 28.2725 28.5268 28.5805 28.0228 28.8045C27.5268 29.0285 26.9828 29.1405 26.3908 29.1405C25.7988 29.1405 25.2548 29.0285 24.7588 28.8045C24.2628 28.5805 23.8308 28.2725 23.4628 27.8805C23.1028 27.4805 22.8228 27.0205 22.6228 26.5005C22.4228 25.9805 22.3228 25.4205 22.3228 24.8205C22.3228 24.2205 22.4228 23.6605 22.6228 23.1405C22.8228 22.6205 23.1028 22.1645 23.4628 21.7725C23.8308 21.3725 24.2628 21.0605 24.7588 20.8365C25.2548 20.6125 25.7988 20.5005 26.3908 20.5005C26.9828 20.5005 27.5268 20.6125 28.0228 20.8365C28.5268 21.0605 28.9588 21.3725 29.3188 21.7725C29.6868 22.1645 29.9708 22.6205 30.1708 23.1405C30.3708 23.6605 30.4708 24.2205 30.4708 24.8205ZM28.9108 24.8205C28.9108 24.2845 28.8028 23.8005 28.5868 23.3685C28.3708 22.9285 28.0748 22.5805 27.6988 22.3245C27.3228 22.0685 26.8868 21.9405 26.3908 21.9405C25.8948 21.9405 25.4588 22.0685 25.0828 22.3245C24.7068 22.5805 24.4108 22.9245 24.1948 23.3565C23.9868 23.7885 23.8828 24.2765 23.8828 24.8205C23.8828 25.3565 23.9868 25.8445 24.1948 26.2845C24.4108 26.7165 24.7068 27.0605 25.0828 27.3165C25.4588 27.5725 25.8948 27.7005 26.3908 27.7005C26.8868 27.7005 27.3228 27.5725 27.6988 27.3165C28.0748 27.0605 28.3708 26.7165 28.5868 26.2845C28.8028 25.8445 28.9108 25.3565 28.9108 24.8205ZM38.2202 20.6205C38.4122 20.6205 38.5682 20.6845 38.6882 20.8125C38.8082 20.9405 38.8682 21.1005 38.8682 21.2925V28.2885C38.8682 28.4965 38.7962 28.6725 38.6522 28.8165C38.5162 28.9525 38.3442 29.0205 38.1362 29.0205C38.0322 29.0205 37.9242 29.0045 37.8122 28.9725C37.7082 28.9325 37.6282 28.8805 37.5722 28.8165L32.8562 22.8285L33.1682 22.6365V28.3485C33.1682 28.5405 33.1042 28.7005 32.9762 28.8285C32.8562 28.9565 32.6962 29.0205 32.4962 29.0205C32.3042 29.0205 32.1482 28.9565 32.0282 28.8285C31.9082 28.7005 31.8482 28.5405 31.8482 28.3485V21.3525C31.8482 21.1445 31.9162 20.9725 32.0522 20.8365C32.1962 20.6925 32.3722 20.6205 32.5802 20.6205C32.6922 20.6205 32.8082 20.6445 32.9282 20.6925C33.0482 20.7325 33.1362 20.7965 33.1922 20.8845L37.7642 26.7165L37.5602 26.8605V21.2925C37.5602 21.1005 37.6202 20.9405 37.7402 20.8125C37.8602 20.6845 38.0202 20.6205 38.2202 20.6205Z" fill="white"/>
</svg>
