<svg width="48" height="48" viewBox="0 0 48 48" fill="none" xmlns="http://www.w3.org/2000/svg">
<path fill-rule="evenodd" clip-rule="evenodd" d="M30.9419 0.0205078L30.9214 0.0410156L44.8821 14.041V43.9997C44.8821 46.2089 43.0912 47.9997 40.8821 47.9997H7C4.79086 47.9997 3 46.2089 3 43.9997V4.0205C3 1.81137 4.79086 0.0205078 7 0.0205078H30.9419Z" fill="#88C057"/>
<path fill-rule="evenodd" clip-rule="evenodd" d="M31.0391 0.0186806H31.001L31.001 11.0087C31.001 12.6675 32.3425 14.0122 33.9974 14.0123L44.9995 14.0123L31.0391 0.0186806Z" fill="#659C35"/>
<path d="M16.368 20.6205C16.784 20.6205 17.172 20.7405 17.532 20.9805C17.9 21.2205 18.196 21.5445 18.42 21.9525C18.644 22.3605 18.756 22.8165 18.756 23.3205C18.756 23.8165 18.644 24.2685 18.42 24.6765C18.196 25.0845 17.9 25.4125 17.532 25.6605C17.172 25.9005 16.784 26.0205 16.368 26.0205H14.16L14.28 25.8045V28.2885C14.28 28.4965 14.216 28.6725 14.088 28.8165C13.96 28.9525 13.792 29.0205 13.584 29.0205C13.384 29.0205 13.22 28.9525 13.092 28.8165C12.964 28.6725 12.9 28.4965 12.9 28.2885V21.3525C12.9 21.1445 12.968 20.9725 13.104 20.8365C13.248 20.6925 13.424 20.6205 13.632 20.6205H16.368ZM16.368 24.6525C16.52 24.6525 16.668 24.5885 16.812 24.4605C16.956 24.3325 17.076 24.1685 17.172 23.9685C17.268 23.7605 17.316 23.5445 17.316 23.3205C17.316 23.0885 17.268 22.8725 17.172 22.6725C17.076 22.4725 16.956 22.3125 16.812 22.1925C16.668 22.0645 16.52 22.0005 16.368 22.0005H14.136L14.28 21.7845V24.8445L14.148 24.6525H16.368ZM26.5025 20.6205C26.6945 20.6205 26.8505 20.6845 26.9705 20.8125C27.0905 20.9405 27.1505 21.1005 27.1505 21.2925V28.2885C27.1505 28.4965 27.0785 28.6725 26.9345 28.8165C26.7985 28.9525 26.6265 29.0205 26.4185 29.0205C26.3145 29.0205 26.2065 29.0045 26.0945 28.9725C25.9905 28.9325 25.9105 28.8805 25.8545 28.8165L21.1385 22.8285L21.4505 22.6365V28.3485C21.4505 28.5405 21.3865 28.7005 21.2585 28.8285C21.1385 28.9565 20.9785 29.0205 20.7785 29.0205C20.5865 29.0205 20.4305 28.9565 20.3105 28.8285C20.1905 28.7005 20.1305 28.5405 20.1305 28.3485V21.3525C20.1305 21.1445 20.1985 20.9725 20.3345 20.8365C20.4785 20.6925 20.6545 20.6205 20.8625 20.6205C20.9745 20.6205 21.0905 20.6445 21.2105 20.6925C21.3305 20.7325 21.4185 20.7965 21.4745 20.8845L26.0465 26.7165L25.8425 26.8605V21.2925C25.8425 21.1005 25.9025 20.9405 26.0225 20.8125C26.1425 20.6845 26.3025 20.6205 26.5025 20.6205ZM32.9147 29.1405C32.3067 29.1405 31.7387 29.0285 31.2107 28.8045C30.6827 28.5805 30.2187 28.2725 29.8187 27.8805C29.4187 27.4805 29.1027 27.0205 28.8707 26.5005C28.6467 25.9805 28.5347 25.4205 28.5347 24.8205C28.5347 24.2205 28.6467 23.6605 28.8707 23.1405C29.1027 22.6205 29.4187 22.1645 29.8187 21.7725C30.2187 21.3725 30.6827 21.0605 31.2107 20.8365C31.7387 20.6125 32.3067 20.5005 32.9147 20.5005C33.2907 20.5005 33.6547 20.5405 34.0067 20.6205C34.3587 20.7005 34.6827 20.8205 34.9787 20.9805C35.0987 21.0445 35.1867 21.1325 35.2427 21.2445C35.3067 21.3485 35.3387 21.4565 35.3387 21.5685C35.3387 21.7605 35.2747 21.9325 35.1467 22.0845C35.0187 22.2365 34.8547 22.3125 34.6547 22.3125C34.5907 22.3125 34.5227 22.3045 34.4507 22.2885C34.3867 22.2725 34.3227 22.2485 34.2587 22.2165C34.0587 22.1285 33.8467 22.0605 33.6227 22.0125C33.3987 21.9645 33.1627 21.9405 32.9147 21.9405C32.3947 21.9405 31.9187 22.0725 31.4867 22.3365C31.0627 22.5925 30.7227 22.9405 30.4667 23.3805C30.2187 23.8125 30.0947 24.2925 30.0947 24.8205C30.0947 25.3405 30.2187 25.8205 30.4667 26.2605C30.7227 26.7005 31.0627 27.0525 31.4867 27.3165C31.9187 27.5725 32.3947 27.7005 32.9147 27.7005C33.1547 27.7005 33.4187 27.6765 33.7067 27.6285C33.9947 27.5805 34.2307 27.5165 34.4147 27.4365L34.3067 27.7965V25.7445L34.5107 25.9245H33.1787C32.9707 25.9245 32.7947 25.8565 32.6507 25.7205C32.5147 25.5845 32.4467 25.4125 32.4467 25.2045C32.4467 24.9965 32.5147 24.8245 32.6507 24.6885C32.7947 24.5525 32.9707 24.4845 33.1787 24.4845H35.1467C35.3547 24.4845 35.5267 24.5565 35.6627 24.7005C35.7987 24.8365 35.8667 25.0085 35.8667 25.2165V27.7605C35.8667 27.9205 35.8267 28.0525 35.7467 28.1565C35.6747 28.2605 35.5907 28.3445 35.4947 28.4085C35.1267 28.6325 34.7227 28.8125 34.2827 28.9485C33.8507 29.0765 33.3947 29.1405 32.9147 29.1405Z" fill="white"/>
</svg>
