<svg width="48" height="48" viewBox="0 0 48 48" fill="none" xmlns="http://www.w3.org/2000/svg">
<path fill-rule="evenodd" clip-rule="evenodd" d="M30.9419 0.0205078L30.9214 0.0410156L44.8821 14.041V43.9997C44.8821 46.2089 43.0912 47.9997 40.8821 47.9997H7C4.79086 47.9997 3 46.2089 3 43.9997V4.0205C3 1.81137 4.79086 0.0205078 7 0.0205078H30.9419Z" fill="#26B99A"/>
<path fill-rule="evenodd" clip-rule="evenodd" d="M31.0391 0.0186806H31.001L31.001 11.0087C31.001 12.6675 32.3425 14.0122 33.9974 14.0123L44.9995 14.0123L31.0391 0.0186806Z" fill="#14A085"/>
<path d="M15.856 29.1405C15.4 29.1405 14.976 29.0485 14.584 28.8645C14.192 28.6805 13.872 28.4165 13.624 28.0725C13.528 27.9285 13.48 27.7885 13.48 27.6525C13.48 27.4525 13.556 27.2845 13.708 27.1485C13.868 27.0125 14.024 26.9445 14.176 26.9445C14.296 26.9445 14.412 26.9805 14.524 27.0525C14.644 27.1245 14.752 27.2085 14.848 27.3045C15.008 27.4485 15.164 27.5525 15.316 27.6165C15.476 27.6725 15.656 27.7005 15.856 27.7005C16.096 27.7005 16.32 27.6405 16.528 27.5205C16.736 27.4005 16.904 27.2405 17.032 27.0405C17.16 26.8405 17.224 26.6245 17.224 26.3925V21.3525C17.224 21.1445 17.3 20.9725 17.452 20.8365C17.604 20.6925 17.78 20.6205 17.98 20.6205C18.204 20.6205 18.384 20.6925 18.52 20.8365C18.656 20.9725 18.724 21.1445 18.724 21.3525V26.3925C18.724 26.8805 18.596 27.3325 18.34 27.7485C18.084 28.1645 17.74 28.5005 17.308 28.7565C16.876 29.0125 16.392 29.1405 15.856 29.1405ZM23.9891 20.6205C24.4051 20.6205 24.7931 20.7405 25.1531 20.9805C25.5211 21.2205 25.8171 21.5445 26.0411 21.9525C26.2651 22.3605 26.3771 22.8165 26.3771 23.3205C26.3771 23.8165 26.2651 24.2685 26.0411 24.6765C25.8171 25.0845 25.5211 25.4125 25.1531 25.6605C24.7931 25.9005 24.4051 26.0205 23.9891 26.0205H21.7811L21.9011 25.8045V28.2885C21.9011 28.4965 21.8371 28.6725 21.7091 28.8165C21.5811 28.9525 21.4131 29.0205 21.2051 29.0205C21.0051 29.0205 20.8411 28.9525 20.7131 28.8165C20.5851 28.6725 20.5211 28.4965 20.5211 28.2885V21.3525C20.5211 21.1445 20.5891 20.9725 20.7251 20.8365C20.8691 20.6925 21.0451 20.6205 21.2531 20.6205H23.9891ZM23.9891 24.6525C24.1411 24.6525 24.2891 24.5885 24.4331 24.4605C24.5771 24.3325 24.6971 24.1685 24.7931 23.9685C24.8891 23.7605 24.9371 23.5445 24.9371 23.3205C24.9371 23.0885 24.8891 22.8725 24.7931 22.6725C24.6971 22.4725 24.5771 22.3125 24.4331 22.1925C24.2891 22.0645 24.1411 22.0005 23.9891 22.0005H21.7571L21.9011 21.7845V24.8445L21.7691 24.6525H23.9891ZM31.7116 29.1405C31.1036 29.1405 30.5356 29.0285 30.0076 28.8045C29.4796 28.5805 29.0156 28.2725 28.6156 27.8805C28.2156 27.4805 27.8996 27.0205 27.6676 26.5005C27.4436 25.9805 27.3316 25.4205 27.3316 24.8205C27.3316 24.2205 27.4436 23.6605 27.6676 23.1405C27.8996 22.6205 28.2156 22.1645 28.6156 21.7725C29.0156 21.3725 29.4796 21.0605 30.0076 20.8365C30.5356 20.6125 31.1036 20.5005 31.7116 20.5005C32.0876 20.5005 32.4516 20.5405 32.8036 20.6205C33.1556 20.7005 33.4796 20.8205 33.7756 20.9805C33.8956 21.0445 33.9836 21.1325 34.0396 21.2445C34.1036 21.3485 34.1356 21.4565 34.1356 21.5685C34.1356 21.7605 34.0716 21.9325 33.9436 22.0845C33.8156 22.2365 33.6516 22.3125 33.4516 22.3125C33.3876 22.3125 33.3196 22.3045 33.2476 22.2885C33.1836 22.2725 33.1196 22.2485 33.0556 22.2165C32.8556 22.1285 32.6436 22.0605 32.4196 22.0125C32.1956 21.9645 31.9596 21.9405 31.7116 21.9405C31.1916 21.9405 30.7156 22.0725 30.2836 22.3365C29.8596 22.5925 29.5196 22.9405 29.2636 23.3805C29.0156 23.8125 28.8916 24.2925 28.8916 24.8205C28.8916 25.3405 29.0156 25.8205 29.2636 26.2605C29.5196 26.7005 29.8596 27.0525 30.2836 27.3165C30.7156 27.5725 31.1916 27.7005 31.7116 27.7005C31.9516 27.7005 32.2156 27.6765 32.5036 27.6285C32.7916 27.5805 33.0276 27.5165 33.2116 27.4365L33.1036 27.7965V25.7445L33.3076 25.9245H31.9756C31.7676 25.9245 31.5916 25.8565 31.4476 25.7205C31.3116 25.5845 31.2436 25.4125 31.2436 25.2045C31.2436 24.9965 31.3116 24.8245 31.4476 24.6885C31.5916 24.5525 31.7676 24.4845 31.9756 24.4845H33.9436C34.1516 24.4845 34.3236 24.5565 34.4596 24.7005C34.5956 24.8365 34.6636 25.0085 34.6636 25.2165V27.7605C34.6636 27.9205 34.6236 28.0525 34.5436 28.1565C34.4716 28.2605 34.3876 28.3445 34.2916 28.4085C33.9236 28.6325 33.5196 28.8125 33.0796 28.9485C32.6476 29.0765 32.1916 29.1405 31.7116 29.1405Z" fill="white"/>
</svg>
