<svg width="48" height="48" viewBox="0 0 48 48" fill="none" xmlns="http://www.w3.org/2000/svg">
<path fill-rule="evenodd" clip-rule="evenodd" d="M30.9419 0.0205078L30.9214 0.0410156L44.8821 14.041V43.9997C44.8821 46.2089 43.0912 47.9997 40.8821 47.9997H7C4.79086 47.9997 3 46.2089 3 43.9997V4.0205C3 1.81137 4.79086 0.0205078 7 0.0205078H30.9419Z" fill="#F36FA0"/>
<path fill-rule="evenodd" clip-rule="evenodd" d="M31.0391 0.0186806H31.001L31.001 11.0087C31.001 12.6675 32.3425 14.0122 33.9974 14.0123L44.9995 14.0123L31.0391 0.0186806Z" fill="#C03267"/>
<path d="M19.78 21.0285C19.988 21.1325 20.108 21.2965 20.14 21.5205C20.18 21.7445 20.124 21.9485 19.972 22.1325C19.868 22.2765 19.732 22.3565 19.564 22.3725C19.404 22.3885 19.24 22.3565 19.072 22.2765C18.88 22.1885 18.676 22.1205 18.46 22.0725C18.252 22.0245 18.032 22.0005 17.8 22.0005C17.368 22.0005 16.98 22.0685 16.636 22.2045C16.3 22.3405 16.012 22.5365 15.772 22.7925C15.532 23.0405 15.348 23.3365 15.22 23.6805C15.1 24.0245 15.04 24.4045 15.04 24.8205C15.04 25.3085 15.108 25.7325 15.244 26.0925C15.388 26.4525 15.584 26.7525 15.832 26.9925C16.08 27.2325 16.372 27.4125 16.708 27.5325C17.044 27.6445 17.408 27.7005 17.8 27.7005C18.016 27.7005 18.232 27.6805 18.448 27.6405C18.664 27.6005 18.872 27.5285 19.072 27.4245C19.24 27.3445 19.404 27.3165 19.564 27.3405C19.732 27.3645 19.872 27.4485 19.984 27.5925C20.144 27.7925 20.2 28.0005 20.152 28.2165C20.112 28.4245 19.992 28.5765 19.792 28.6725C19.584 28.7765 19.368 28.8645 19.144 28.9365C18.928 29.0005 18.708 29.0485 18.484 29.0805C18.26 29.1205 18.032 29.1405 17.8 29.1405C17.224 29.1405 16.676 29.0485 16.156 28.8645C15.644 28.6805 15.184 28.4085 14.776 28.0485C14.376 27.6885 14.06 27.2405 13.828 26.7045C13.596 26.1605 13.48 25.5325 13.48 24.8205C13.48 24.2045 13.584 23.6365 13.792 23.1165C14.008 22.5965 14.308 22.1485 14.692 21.7725C15.084 21.3885 15.544 21.0925 16.072 20.8845C16.6 20.6685 17.176 20.5605 17.8 20.5605C18.152 20.5605 18.496 20.6005 18.832 20.6805C19.168 20.7605 19.484 20.8765 19.78 21.0285ZM24.1234 29.1405C23.5634 29.1405 23.0594 29.0725 22.6114 28.9365C22.1634 28.7925 21.7354 28.5445 21.3274 28.1925C21.2234 28.1045 21.1434 28.0045 21.0874 27.8925C21.0314 27.7805 21.0034 27.6685 21.0034 27.5565C21.0034 27.3725 21.0674 27.2125 21.1954 27.0765C21.3314 26.9325 21.4994 26.8605 21.6994 26.8605C21.8514 26.8605 21.9874 26.9085 22.1074 27.0045C22.4114 27.2525 22.7114 27.4405 23.0074 27.5685C23.3114 27.6965 23.6834 27.7605 24.1234 27.7605C24.4194 27.7605 24.6914 27.7165 24.9394 27.6285C25.1874 27.5325 25.3874 27.4085 25.5394 27.2565C25.6914 27.0965 25.7674 26.9165 25.7674 26.7165C25.7674 26.4765 25.6954 26.2725 25.5514 26.1045C25.4074 25.9365 25.1874 25.7965 24.8914 25.6845C24.5954 25.5645 24.2194 25.4725 23.7634 25.4085C23.3314 25.3445 22.9514 25.2485 22.6234 25.1205C22.2954 24.9845 22.0194 24.8165 21.7954 24.6165C21.5794 24.4085 21.4154 24.1685 21.3034 23.8965C21.1914 23.6165 21.1354 23.3045 21.1354 22.9605C21.1354 22.4405 21.2674 21.9965 21.5314 21.6285C21.8034 21.2605 22.1674 20.9805 22.6234 20.7885C23.0794 20.5965 23.5834 20.5005 24.1354 20.5005C24.6554 20.5005 25.1354 20.5805 25.5754 20.7405C26.0234 20.8925 26.3874 21.0885 26.6674 21.3285C26.8994 21.5125 27.0154 21.7245 27.0154 21.9645C27.0154 22.1405 26.9474 22.3005 26.8114 22.4445C26.6754 22.5885 26.5154 22.6605 26.3314 22.6605C26.2114 22.6605 26.1034 22.6245 26.0074 22.5525C25.8794 22.4405 25.7074 22.3365 25.4914 22.2405C25.2754 22.1365 25.0474 22.0525 24.8074 21.9885C24.5674 21.9165 24.3434 21.8805 24.1354 21.8805C23.7914 21.8805 23.4994 21.9245 23.2594 22.0125C23.0274 22.1005 22.8514 22.2205 22.7314 22.3725C22.6114 22.5245 22.5514 22.7005 22.5514 22.9005C22.5514 23.1405 22.6194 23.3405 22.7554 23.5005C22.8994 23.6525 23.1034 23.7765 23.3674 23.8725C23.6314 23.9605 23.9474 24.0405 24.3154 24.1125C24.7954 24.2005 25.2154 24.3045 25.5754 24.4245C25.9434 24.5445 26.2474 24.7005 26.4874 24.8925C26.7274 25.0765 26.9074 25.3125 27.0274 25.6005C27.1474 25.8805 27.2074 26.2245 27.2074 26.6325C27.2074 27.1525 27.0634 27.6005 26.7754 27.9765C26.4874 28.3525 26.1074 28.6405 25.6354 28.8405C25.1714 29.0405 24.6674 29.1405 24.1234 29.1405ZM34.7156 20.5965C34.9156 20.5965 35.0876 20.6645 35.2316 20.8005C35.3836 20.9285 35.4596 21.0925 35.4596 21.2925C35.4596 21.3965 35.4356 21.5045 35.3876 21.6165L32.4236 28.5525C32.3516 28.7125 32.2476 28.8325 32.1116 28.9125C31.9836 28.9845 31.8516 29.0205 31.7156 29.0205C31.5876 29.0125 31.4636 28.9725 31.3436 28.9005C31.2236 28.8205 31.1316 28.7085 31.0676 28.5645L28.1036 21.6045C28.0796 21.5565 28.0636 21.5085 28.0556 21.4605C28.0476 21.4045 28.0436 21.3525 28.0436 21.3045C28.0436 21.0725 28.1276 20.8965 28.2956 20.7765C28.4636 20.6485 28.6236 20.5845 28.7756 20.5845C29.0796 20.5845 29.2996 20.7405 29.4356 21.0525L32.0636 27.2325L31.6436 27.2445L34.0556 21.0525C34.1916 20.7485 34.4116 20.5965 34.7156 20.5965Z" fill="white"/>
</svg>
