<svg width="21" height="20" viewBox="0 0 21 20" xmlns="http://www.w3.org/2000/svg">
<path fill-rule="evenodd" clip-rule="evenodd" d="M4.74408 1.91083C5.06951 1.58539 5.59715 1.58539 5.92259 1.91083L13.4226 9.41083C13.748 9.73626 13.748 10.2639 13.4226 10.5893L5.92259 18.0893C5.59715 18.4148 5.06951 18.4148 4.74408 18.0893C4.41864 17.7639 4.41864 17.2363 4.74408 16.9108L11.6548 10.0001L4.74408 3.08934C4.41864 2.7639 4.41864 2.23626 4.74408 1.91083Z"/>
<path fill-rule="evenodd" clip-rule="evenodd" d="M15.9184 2C16.3795 2 16.7534 2.51167 16.7534 3.14286V16.8571C16.7534 17.4883 16.3795 18 15.9184 18C15.4572 18 15.0834 17.4883 15.0834 16.8571V3.14286C15.0834 2.51167 15.4572 2 15.9184 2Z"/>
</svg>
