<svg width="35" height="32" viewBox="0 0 35 32" fill="none" xmlns="http://www.w3.org/2000/svg">
<g clip-path="url(#clip0_318_2683)">
<path d="M26.1682 17.1289L23.8271 21.5296L26.1626 17.1346L26.1682 17.1289Z" fill="#EF8300"/>
<path d="M34.3231 23.9806H33.7057L31.8204 31.6L24.485 28.9202C24.485 28.9202 24.4519 28.9959 24.4041 29.0848L24.2645 28.9581L24.1506 28.854L20.1245 29.255L20.1006 28.4058V28.4039L19.6633 27.7212H17.5906V24.2472H18.8217V24.0335H19.0882L19.9959 24.8372L20.0088 25.015L23.8253 23.1711H27.5794L34.3084 23.9654L34.3231 23.9806Z" fill="#EF8300"/>
<path d="M33.3125 11.5482L32.4213 12.3236L33.1765 12.889L32.3533 13.8403L32.798 14.3698L31.4602 15.9546L31.4878 16.0454L24.5456 14.0956L19.8416 9.62492L22.6364 7.44064L31.5025 0.503915H31.5062L31.7359 0.399902L33.4834 5.7632L32.73 11.0187L33.3125 11.5482Z" fill="#733800"/>
<path d="M34.3233 23.9806H33.7059L31.8206 31.6L24.4852 28.9202C24.4852 28.9202 24.4521 28.9959 24.4043 29.0848L24.2647 28.9581L24.1507 28.854L20.0126 25.0358L19.9961 25.0226L20.009 25.015L23.8255 23.1711H27.5796L34.3086 23.9654L34.3233 23.9806Z" fill="#DC7600"/>
<path d="M24.1525 28.8541L20.1246 29.255L20.1007 28.4059V28.404L19.9978 25.0208L20.0125 25.034L24.1525 28.8541Z" fill="#D4C2B1"/>
<path d="M27.5794 23.1711L24.2663 28.9581L23.8271 23.1711H27.5794Z" fill="#C66100"/>
<path d="M31.5025 0.503906L22.6364 7.44063L19.8416 9.62491L21.556 4.94999H21.5909L21.8849 4.8195L31.5025 0.503906Z" fill="#DC7600"/>
<path d="M26.9363 17.0136L26.3189 16.8377L26.1627 17.1327L23.8272 21.5278L23.5112 19.6234L20.1522 20.5746L19.2959 22.3391L19.5697 17.0817L18.8494 16.2004L19.6358 16.8699L19.8416 9.62109L24.5457 14.0899C24.5457 14.0899 26.3189 16.3403 26.4916 16.4803C26.6625 16.6259 26.9363 17.0136 26.9363 17.0136Z" fill="#DC7600"/>
<path d="M26.3189 16.8376L26.1627 17.1346L23.8272 21.5296L23.5112 19.6252L20.1522 20.5764L19.2959 22.3409L19.6101 17.3199L19.6358 16.8736L26.3189 16.8376Z" fill="#C66100"/>
<path d="M20.1521 20.5765L21.1793 18.6986L20.8448 18.2769L23.5111 19.6252L20.1521 20.5765Z" fill="#263344"/>
<path d="M20.1522 20.5765L19.2959 22.3409L19.5697 17.0854L19.6101 17.32L20.1522 20.5765Z" fill="#DC7312"/>
<path d="M26.1683 17.1289L23.8273 21.5296L23.5112 19.6252L26.1628 17.1346L26.1683 17.1289Z" fill="#DC7312"/>
<path d="M34.6668 23.4699L34.0329 23.3451V23.0822L33.6194 23.2581L31.4879 16.0452L24.5457 14.0955C24.5457 14.0955 26.3189 16.3459 26.4917 16.4859C26.6626 16.6258 26.9363 17.0135 26.9363 17.0135L26.3189 16.8376L26.1627 17.1327L26.1664 17.1289L23.8254 21.5296L23.5094 19.6252L20.1503 20.5764L19.2941 22.3409L19.5679 17.0835L18.8475 16.2022L19.634 16.8717L19.8398 9.62291L21.5524 4.94799L17.745 4.94043H17.6605H17.5888L13.1089 4.94799L14.8215 9.62291L15.031 16.8736L15.8175 16.2041L15.0971 17.0854L15.3709 22.3428L14.5146 20.5783L11.1556 19.6271L10.8396 21.5315L8.50041 17.1289L8.50409 17.1327L8.3479 16.8376L7.73049 17.0135C7.73049 17.0135 8.00428 16.6258 8.17517 16.4859C8.3479 16.3459 10.1211 14.0955 10.1211 14.0955L3.17893 16.0452L1.04739 23.2581L0.633948 23.0822V23.3451L0 23.4699L0.633948 23.6987L0.358318 23.9635L7.08735 23.1692H10.8414L14.658 25.0131L14.6708 24.8353L15.5786 24.0316H15.845V24.2453H17.5925H17.7487H18.8218V24.0316H19.0883L19.996 24.8353L20.0089 25.0131L23.8254 23.1692H27.5795L34.3085 23.9635L34.0329 23.6987L34.6668 23.4699Z" fill="#EF8300"/>
<path d="M8.50049 17.1289L10.8397 21.5296L8.50416 17.1346L8.50049 17.1289Z" fill="#EF8300"/>
<path d="M24.2665 28.958L24.1526 28.854L20.1266 29.2549L20.1027 28.4058V28.4039L19.6653 27.7212H17.9748H17.5944H15.0035L14.5662 28.4039V28.4058L14.5423 29.2549L10.5163 28.854L10.4023 28.958L10.2627 29.0847C10.3454 29.2379 10.463 29.427 10.5071 29.3249C10.5751 29.1679 10.6614 28.9372 10.6614 28.9372L14.7224 30.9116H17.5926H17.973H19.9465L24.0074 28.9372C24.0074 28.9372 24.0956 29.1679 24.1618 29.3249C24.2059 29.427 24.3235 29.2379 24.4062 29.0847L24.2665 28.958Z" fill="#BEAC9C"/>
<path d="M0.343506 23.9806H0.960916L2.84622 31.6L10.1816 28.9202C10.1816 28.9202 10.2147 28.9959 10.2625 29.0848L10.4021 28.9581L10.5161 28.854L14.5421 29.255L14.566 28.4058V28.4039L15.0033 27.7212H17.0742V24.2472H15.8431V24.0335H15.5766L14.6689 24.8372L14.656 25.015L10.8395 23.1711H7.08724L0.358206 23.9654L0.343506 23.9806Z" fill="#EF8300"/>
<path d="M1.35424 11.5482L2.24728 12.3236L1.49022 12.889L2.31343 13.8403L1.87059 14.3698L3.20647 15.9546L3.17891 16.0454L10.1211 14.0956L14.8252 9.62492L12.0303 7.44064L3.16421 0.503915H3.16053L2.93084 0.399902L1.18335 5.7632L1.93674 11.0187L1.35424 11.5482Z" fill="#733800"/>
<path d="M0.343506 23.9806H0.960916L2.84622 31.6L10.1816 28.9202C10.1816 28.9202 10.2147 28.9959 10.2625 29.0848L10.4021 28.9581L10.5161 28.854L14.6542 25.0358L14.6707 25.0226L14.6579 25.015L10.8413 23.1711H7.08724L0.358206 23.9654L0.343506 23.9806Z" fill="#DC7600"/>
<path d="M10.5161 28.8541L14.5421 29.255L14.566 28.4059V28.404L14.6708 25.0208L14.6542 25.034L10.5161 28.8541Z" fill="#D4C2B1"/>
<path d="M7.0874 23.1711L10.4005 28.9581L10.8396 23.1711H7.0874Z" fill="#C66100"/>
<path d="M3.16431 0.503906L12.0304 7.44063L14.8253 9.62491L13.1127 4.94999H13.0759L12.7819 4.8195L3.16431 0.503906Z" fill="#DC7600"/>
<path d="M7.73047 17.0137L8.34788 16.8378L8.50407 17.1329L10.8396 21.5279L11.1556 19.6235L14.5146 20.5747L15.3709 22.3392L15.0971 17.0818L15.8174 16.2005L15.031 16.8738L14.8252 9.625L10.1211 14.0938C10.1211 14.0938 8.34788 16.3442 8.17515 16.4842C8.00426 16.626 7.73047 17.0137 7.73047 17.0137Z" fill="#DC7600"/>
<path d="M8.3479 16.8376L8.50409 17.1346L10.8396 21.5296L11.1575 19.6252L14.5146 20.5764L15.3709 22.3409L15.0586 17.3199L15.031 16.8736L8.3479 16.8376Z" fill="#C66100"/>
<path d="M14.5146 20.5765L13.4875 18.6986L13.8219 18.2769L11.1575 19.6252L14.5146 20.5765Z" fill="#263344"/>
<path d="M14.5146 20.5765L15.3709 22.3409L15.099 17.0854L15.0586 17.32L14.5146 20.5765Z" fill="#DC7312"/>
<path d="M8.50049 17.1289L10.8397 21.5296L11.1576 19.6252L8.50416 17.1346L8.50049 17.1289Z" fill="#DC7312"/>
<path d="M20.3046 28.7275L20.0125 25.0341L20.0106 25.0133L19.9978 24.8355L19.0882 24.0337H18.8217V24.2474H15.8449V24.0337H15.5785L14.6708 24.8355L14.6561 25.0133L14.6542 25.0341L14.3621 28.7275L14.566 28.406V28.4041L15.0034 27.7214H16.9126H17.7541H19.6633L20.1007 28.4041V28.406L20.3046 28.7275Z" fill="black"/>
</g>
<defs>
<clipPath id="clip0_318_2683">
<rect width="34.6668" height="31.2001" fill="white" transform="translate(0 0.399902)"/>
</clipPath>
</defs>
</svg>
