<svg width="24" height="24" viewBox="0 0 24 24" fill="none" xmlns="http://www.w3.org/2000/svg">
<rect width="24" height="24" rx="12" fill="#8247E5"/>
<path d="M16.0738 9.30435C15.7786 9.13036 15.3948 9.13036 15.0701 9.30435L12.7675 10.6382L11.2029 11.5082L8.90037 12.842C8.60516 13.016 8.2214 13.016 7.89668 12.842L6.06642 11.7981C5.77122 11.6241 5.56458 11.3052 5.56458 10.9572V8.89839C5.56458 8.55042 5.7417 8.23145 6.06642 8.05747L7.86715 7.04257C8.16236 6.86859 8.54612 6.86859 8.87084 7.04257L10.6716 8.05747C10.9668 8.23145 11.1734 8.55042 11.1734 8.89839V10.2323L12.738 9.33335V7.99948C12.738 7.65151 12.5609 7.33254 12.2362 7.15856L8.90037 5.24475C8.60516 5.07076 8.2214 5.07076 7.89668 5.24475L4.50184 7.15856C4.17712 7.33254 4 7.65151 4 7.99948V11.8561C4 12.2041 4.17712 12.5231 4.50184 12.697L7.89668 14.6108C8.19187 14.7848 8.57564 14.7848 8.90037 14.6108L11.2029 13.306L12.7675 12.4071L15.0701 11.1022C15.3653 10.9282 15.7491 10.9282 16.0738 11.1022L17.8745 12.1171C18.1697 12.291 18.3764 12.61 18.3764 12.958V15.0168C18.3764 15.3648 18.1993 15.6837 17.8745 15.8577L16.0738 16.9016C15.7786 17.0756 15.3948 17.0756 15.0701 16.9016L13.2694 15.8867C12.9742 15.7127 12.7675 15.3937 12.7675 15.0458V13.7119L11.2029 14.6108V15.9447C11.2029 16.2926 11.3801 16.6116 11.7048 16.7856L15.0996 18.6994C15.3948 18.8734 15.7786 18.8734 16.1033 18.6994L19.4982 16.7856C19.7933 16.6116 20 16.2926 20 15.9447V12.0881C20 11.7401 19.8228 11.4212 19.4982 11.2472L16.0738 9.30435Z" fill="white"/>
</svg>
